<svg width="32" height="32" viewBox="0 0 32 32" fill="none" xmlns="http://www.w3.org/2000/svg">
<path d="M11.381 11.9556V13.5483" stroke="black" stroke-width="2.66667" stroke-linecap="round"/>
<path d="M20.0989 10.8659V13.213" stroke="black" stroke-width="2.66667" stroke-linecap="round"/>
<path d="M11.4648 18.8294C11.5137 20.0515 12.5262 20.4103 13.5605 20.6689C14.4587 20.8934 15.3606 21.1346 16.2616 21.3442C16.7643 21.4611 17.3212 21.5766 17.8403 21.5025C18.7965 21.3659 19.751 20.4074 20.5181 19.8819C20.9585 19.5801 21.2594 18.8778 21.6917 18.6617" stroke="black" stroke-width="2.66667" stroke-linecap="round"/>
<path d="M22.1108 6.00395C20.7184 6.00395 19.439 5.93073 18.0685 5.68728C16.9836 5.49456 15.9239 5.33334 14.8225 5.33334C13.2457 5.33334 11.9744 6.06459 10.6312 6.84222C9.91208 7.25856 9.09205 7.80877 8.46571 8.35109C7.93354 8.81187 7.33186 9.32071 6.93821 9.91119C6.20228 11.0151 5.42299 12.4898 5.35017 13.8371C5.31519 14.4842 5.34551 15.1403 5.34551 15.7883C5.34551 17.0753 5.80955 18.4143 6.23034 19.6211C6.87879 21.4808 8.18461 22.9418 9.73242 24.1197C11.1867 25.2266 12.7135 25.787 14.5291 25.787C16.678 25.787 18.9665 25.9684 20.9465 24.9673C22.1699 24.3488 23.3445 23.2998 24.4067 22.4386C25.2679 21.7402 26.1349 20.765 26.6746 19.7934C27.843 17.6903 27.882 15.1245 27.3453 12.8311C27.0483 11.5623 26.5752 10.2113 25.8643 9.10553C25.3383 8.28732 24.6584 7.77613 23.8711 7.26135C22.7374 6.52005 21.2895 6.00395 19.9313 6.00395" stroke="black" stroke-width="2.66667" stroke-linecap="round"/>
</svg>
