<svg width="220" height="60" viewBox="0 0 220 60" fill="none" xmlns="http://www.w3.org/2000/svg">
<path d="M9.69114 13.2288C15.9291 13.2288 19.3823 14.834 20.162 18.0443V18.4317C20.162 20.3137 19.2152 21.1993 17.3215 21.1993C13.0886 19.8709 10.5266 19.2067 9.69114 19.2067C8.07595 19.7602 7.2962 20.8118 7.2962 22.417V22.8598C7.2962 26.0148 9.02278 29.6679 12.5316 33.6531C16.0405 37.9705 17.7671 41.845 17.7671 45.2768C17.7671 49.0959 15.3722 51.3653 10.5266 52.0849C7.4076 52.0849 5.56962 50.7565 4.90127 48.0443V46.4391C5.68101 45.1107 6.46076 44.4465 7.2962 44.4465L10.1367 44.834C10.638 44.5572 11.0835 44.4465 11.362 44.4465V43.2288C3.78734 33.0443 0 25.9594 0 22.0295V21.1993C0 16.4945 3.23038 13.8376 9.69114 13.2288Z" fill="black"/>
<path d="M27.7367 12.3985H28.962C31.1342 12.3985 32.1924 13.4502 32.1924 15.6089C30.8557 24.4096 30.1874 29.5018 30.1874 30.8303C36.9266 21.476 41.8836 16.8266 45.0582 16.8266H45.4481C47.5646 16.8266 49.0684 19.2066 49.9038 24.0221C49.9038 34.5941 50.5722 41.4022 51.9089 44.4465V44.8339C51.4633 47.214 50.2937 48.4317 48.2886 48.4317C45.3367 48.4317 43.8329 40.6827 43.8329 25.1845H43.443C38.1519 30.2214 34.9215 34.7602 33.7519 38.8007C33.3063 38.8007 32.8608 40.0185 32.5266 42.3985C30.1317 44.0037 28.7949 44.7786 28.5165 44.7786C25.2861 44.7786 23.6709 40.6273 23.6709 32.3801C24.3949 19.0959 25.7317 12.3985 27.7367 12.3985Z" fill="black"/>
<path d="M67.5597 16.4391H69.5648C74.1319 17.048 76.4154 20.1476 76.4154 25.6273C77.1951 27.7306 77.9192 33.9852 78.4205 44.4465C79.4787 44.4465 80.0357 45.2768 80.0357 46.8266C80.0357 48.9852 79.3673 50.0369 78.0306 50.0369V51.1993C77.6964 53.5793 76.4711 54.797 74.4103 54.797C72.5167 54.797 71.6255 53.4686 71.6255 50.8118C70.7344 50.8118 70.066 50.9225 69.5648 51.1993C60.1521 50.5904 55.4736 48.5424 55.4736 45.2214V42.8413C55.4736 39.631 58.8154 36.31 65.5546 32.8229L70.7901 30.8303L69.5648 22.417L61.9344 23.6347C60.0407 22.8598 59.1496 21.6421 59.1496 20.0369V19.262C60.0964 17.3801 62.8812 16.4391 67.5597 16.4391ZM62.3243 42.8413V43.2288C62.6027 44.059 63.3825 44.4465 64.7192 44.4465H71.9597C71.9597 43.0627 71.8483 40.7934 71.5698 37.6384H71.18C66.7243 38.8007 63.7724 40.572 62.3243 42.8413Z" fill="black"/>
<path d="M93.9597 13.6162C95.9647 13.6162 97.1901 14.6679 97.5799 16.8266C97.023 18.8192 96.7445 20.1476 96.7445 20.8118H97.1344L99.5293 20.4244H100.755C107.717 21.0332 111.225 23.3026 111.225 27.2325V27.6199C111.225 31.3284 106.101 35.4797 95.909 40.0185C95.909 47.1033 97.5242 51.6421 100.755 53.6347V56.0148C100.755 58.6716 99.6964 60 97.5242 60H97.1344C93.6812 60 91.2306 54.2435 89.8938 42.786V40.4059C89.1141 39.2435 88.6685 38.1919 88.6685 37.1956C89.2255 36.2546 89.4483 35.1476 89.4483 33.9852V28.0074C87.7774 30.3875 86.2736 31.6052 84.9926 31.6052C83.9344 31.6052 82.8761 30.8303 81.7622 29.2251V27.6199C81.7622 24.797 84.4356 22.7491 89.8382 21.6421C90.2837 16.2731 91.6204 13.6162 93.9597 13.6162ZM95.9647 26.845L95.5749 29.6125V33.2103C100.365 30.8856 102.871 29.2804 103.205 28.3948V28.0074C103.205 27.2325 101.479 26.7897 97.9698 26.7897H95.9647V26.845Z" fill="black"/>
<path d="M123.646 13.2288C129.884 13.2288 133.337 14.834 134.117 18.0443V18.4317C134.117 20.3137 133.17 21.1993 131.276 21.1993C127.043 19.8709 124.481 19.2067 123.646 19.2067C122.031 19.7602 121.251 20.8118 121.251 22.417V22.8598C121.251 26.0148 122.977 29.6679 126.486 33.6531C129.995 37.9705 131.722 41.845 131.722 45.2768C131.722 49.0959 129.327 51.3653 124.481 52.0849C121.362 52.0849 119.524 50.7565 118.856 48.0443V46.4391C119.636 45.1107 120.415 44.4465 121.251 44.4465L124.091 44.834C124.593 44.5572 125.038 44.4465 125.317 44.4465V43.2288C117.798 33.0443 114.01 25.9594 114.01 22.0295V21.1993C114.01 16.4945 117.241 13.8376 123.646 13.2288Z" fill="black"/>
<path d="M141.58 13.2288C143.752 13.2288 144.81 14.2805 144.81 16.4391V41.6236C149.767 37.8598 153.944 36.0332 157.286 36.0332C160.628 36.0332 163.19 39.5203 164.916 46.4391L166.977 46.0517H168.147C169.762 46.8819 170.542 48.0443 170.542 49.6494C168.815 52.0295 166.921 53.2472 164.916 53.2472H163.747C159.737 53.2472 157.453 50.4244 156.896 44.834L156.506 42.8413C151.828 42.8413 148.319 46.1624 146.035 52.8598C146.035 56.0701 144.81 57.6753 142.415 57.6753C140.02 57.6753 138.795 54.1882 138.795 47.2694C138.516 46.5498 138.294 40.6827 138.015 29.6679C138.294 23.4133 138.405 18.7085 138.405 15.6642C138.906 14.0037 139.965 13.2288 141.58 13.2288Z" fill="black"/>
<path d="M180.511 14.834C185.19 14.834 189.311 18.155 192.987 24.8524C193.544 26.679 193.767 28.2841 193.767 29.6679V32.4908C193.767 37.8044 190.147 41.7897 182.906 44.5019C181.403 44.7786 180.344 44.8893 179.676 44.8893C174.051 44.1697 171.21 41.5129 171.21 36.9188L170.82 34.9262C170.82 29.3912 173.382 22.8598 178.451 15.3321L180.511 14.834ZM181.737 22.0295C179.063 27.1218 177.727 31.6605 177.727 35.6458C177.727 37.3063 179.063 38.2472 181.737 38.4133C185.524 36.5314 187.362 34.0406 187.362 30.8303V29.6126C187.362 26.2362 185.468 23.7454 181.737 22.0295Z" fill="black"/>
<path d="M206.299 0C208.471 0.221402 209.529 1.27306 209.529 3.21033V11.2362C216.547 11.679 220 13.0074 220 15.2768V15.6642C219.276 17.8229 218.218 18.8745 216.77 18.8745C214.041 18.321 211.312 17.9336 208.694 17.6568V18.0443C208.694 21.2546 208.415 29.7786 207.914 43.6716C207.914 45.8856 208.694 47.3247 210.309 48.0996L210.699 48.9299V50.5351C210.365 52.9151 209.139 54.1328 207.079 54.1328H206.299C202.512 54.1328 200.674 51.0332 200.674 44.8893C201.732 32.7122 202.289 24.5756 202.289 20.4797V18.8745L202.679 18.0996H201.509L199.114 18.4871C197.388 18.4871 196.329 17.2694 195.884 14.8893C195.884 12.7306 198.056 11.679 202.345 11.679H202.734C202.734 3.92989 203.681 0.0553497 205.575 0.0553497H206.299V0Z" fill="black"/>
</svg>
