<svg width="32" height="32" viewBox="0 0 32 32" fill="none" xmlns="http://www.w3.org/2000/svg">
<path d="M15.9934 5.47041C14.7215 5.47041 13.3245 5.26426 12.1801 5.93592C11.3227 6.43921 10.5687 7.2346 9.95162 8.00597C8.37236 9.98005 7.1965 13.117 8.68384 15.4542C9.4186 16.6088 10.1944 17.6161 11.1996 18.5543C11.9121 19.2193 13.1573 19.5869 14.0719 19.8221C14.8016 20.0097 15.4916 20.0004 16.241 20.0004C16.8945 20.0004 17.5825 20.0643 18.2219 19.9112C19.2709 19.6601 20.4168 19.2121 21.2478 18.485C21.8578 17.9512 22.549 17.3896 22.991 16.7022C23.3337 16.169 23.9269 15.6325 24.1052 15.0085C24.5455 13.4676 24.6271 11.9518 23.8824 10.4623C23.3606 9.41873 22.7437 8.45123 22.1887 7.42656C21.8278 6.7604 21.4894 6.40358 20.8417 6.05478C20.5641 5.90529 20.1311 5.95616 19.8265 5.87154C19.4031 5.75394 18.9688 5.71925 18.5438 5.60907C17.5262 5.34524 15.9811 5.09849 15.102 5.73783" stroke="black" stroke-width="2.66667" stroke-linecap="round"/>
<path d="M18.311 20.2678C18.311 21.9881 19.4153 23.4435 20.2523 24.8833C20.394 25.1269 20.5165 25.4186 20.6089 25.6856C20.7047 25.9623 20.9355 26.1674 20.9902 26.468C21.0439 26.7635 21.2598 27.2689 21.5201 27.3991" stroke="black" stroke-width="2.66667" stroke-linecap="round"/>
</svg>
